<svg xmlns="http://www.w3.org/2000/svg" viewBox="0 0 216 64" role="img" aria-labelledby="title">
  <title>Ambient</title>
  <rect width="64" height="64" rx="14" fill="#fffaf1"/>
  <path d="M15 41 34 22l15 7-19 19-15-7Z" fill="#f6f3ec" opacity=".86"/>
  <path d="M18 33 35 16l12 5-17 17-12-5Z" fill="#dfe5e4" opacity=".78"/>
  <path d="M20 49 40 29l10 4-20 20-10-4Z" fill="#536f19" opacity=".28"/>
  <path d="M31 13h5l15 38h-8l-3-8H27l-3 8h-8l15-38Zm-2 24h9l-4-13-5 13Z" fill="#171512"/>
  <path d="M27 43h13l2 5H25l2-5Z" fill="#536f19"/>
  <text x="80" y="40" fill="#fffaf1" font-family="Georgia, Times New Roman, serif" font-size="25" font-weight="500">Ambient</text>
</svg>
